# xmcd
#
# Track frame offsets:
#	150
#	20916
#	35554
#	63621
#	92657
#	112455
#	137731
#	159963
#	180022
#	201167
#	224597
#	246895
#	278222
#
# Disc length: 3917
#
# Revision: 1
# Processed by: cddbd v1.5.1PL0 Copyright (c) Steve Scherf et al.
# Submitted via: CDex 1.51
# Normalized: r0:TRMNUM
#
DISCID=c40f4b0d
DTITLE=Various Artist - Congreso 3er Mundial de la Salsa 
DYEAR=2004
DGENRE=Salsa
TTITLE0=Bailalo Como Ayer - Kim De Los Santos
TTITLE1=Lindo Yambu - Estrellas Cobo
TTITLE2=Puente Al Cielo - Nino Srgarra
TTITLE3=Azuquita Mami - Fania All Stars
TTITLE4=Esa Nena - Edward
TTITLE5=El Temblor - Orquesta La Palabra
TTITLE6=Llego - Tito Rojas
TTITLE7=Akangana - Bronko
TTITLE8=No Llores Por El - Guayacan
TTITLE9=Homenaje - Papo Pepin
TTITLE10=Demuestrame Que Sabes - Don Perignon
TTITLE11=Cucala - Puerto Rican Masters
TTITLE12=Callejon De Los Rumberos - Ecue Tumba
EXTD=YEAR: 2004
EXTT0=
EXTT1=
EXTT2=
EXTT3=
EXTT4=
EXTT5=
EXTT6=
EXTT7=
EXTT8=
EXTT9=
EXTT10=
EXTT11=
EXTT12=
PLAYORDER=
